<mxfile host="app.diagrams.net" modified="2023-05-02T06:12:51.380Z" agent="Mozilla/5.0 (Windows NT 10.0; Win64; x64) AppleWebKit/537.36 (KHTML, like Gecko) Chrome/113.0.0.0 Safari/537.36" etag="QXXAx8SjT-gnSblbUbjQ" version="21.2.3" type="device">
  <diagram name="Page-1" id="PEDKTonTc1XAuUGaaRpx">
    <mxGraphModel dx="765" dy="426" grid="1" gridSize="10" guides="1" tooltips="1" connect="1" arrows="1" fold="1" page="1" pageScale="1" pageWidth="827" pageHeight="1169" math="0" shadow="0">
      <root>
        <mxCell id="0" />
        <mxCell id="1" parent="0" />
        <mxCell id="nMjFauRkBl9U1E-5iKPS-1" value="Interface" style="swimlane;fontStyle=0;childLayout=stackLayout;horizontal=1;startSize=26;horizontalStack=0;resizeParent=1;resizeParentMax=0;resizeLast=0;collapsible=1;marginBottom=0;align=center;fontSize=14;strokeWidth=1;fillColor=default;swimlaneLine=1;glass=0;rounded=0;sketch=0;shadow=0;strokeColor=default;" vertex="1" parent="1">
          <mxGeometry x="216" y="40" width="160" height="60" as="geometry">
            <mxRectangle x="334" y="40" width="130" height="30" as="alternateBounds" />
          </mxGeometry>
        </mxCell>
        <mxCell id="nMjFauRkBl9U1E-5iKPS-2" value="+ move() : void" style="text;strokeColor=default;fillColor=none;spacingLeft=4;spacingRight=4;overflow=hidden;rotatable=0;points=[[0,0.5],[1,0.5]];portConstraint=eastwest;fontSize=12;strokeWidth=0;fillStyle=hatch;sketch=0;shadow=0;glass=0;" vertex="1" parent="nMjFauRkBl9U1E-5iKPS-1">
          <mxGeometry y="26" width="160" height="34" as="geometry" />
        </mxCell>
        <mxCell id="nMjFauRkBl9U1E-5iKPS-3" value="Dog" style="swimlane;fontStyle=0;childLayout=stackLayout;horizontal=1;startSize=26;horizontalStack=0;resizeParent=1;resizeParentMax=0;resizeLast=0;collapsible=1;marginBottom=0;align=center;fontSize=14;strokeWidth=1;fillColor=default;swimlaneLine=1;glass=0;rounded=0;sketch=0;shadow=0;strokeColor=default;" vertex="1" parent="1">
          <mxGeometry x="452" y="20" width="160" height="160" as="geometry">
            <mxRectangle x="334" y="40" width="130" height="30" as="alternateBounds" />
          </mxGeometry>
        </mxCell>
        <mxCell id="nMjFauRkBl9U1E-5iKPS-4" value="+ position : int&#xa;+ averageLength : int" style="text;strokeColor=default;fillColor=none;spacingLeft=4;spacingRight=4;overflow=hidden;rotatable=0;points=[[0,0.5],[1,0.5]];portConstraint=eastwest;fontSize=12;strokeWidth=0;fillStyle=hatch;sketch=0;shadow=0;glass=0;" vertex="1" parent="nMjFauRkBl9U1E-5iKPS-3">
          <mxGeometry y="26" width="160" height="44" as="geometry" />
        </mxCell>
        <mxCell id="nMjFauRkBl9U1E-5iKPS-5" value="+ abstract describe() : void&#xa;+ getPosition() : int&#xa;+ setPosition() : void&#xa;+ getAverageLength() : int&#xa;+ setAverageLength() : void" style="text;strokeColor=default;fillColor=none;spacingLeft=4;spacingRight=4;overflow=hidden;rotatable=0;points=[[0,0.5],[1,0.5]];portConstraint=eastwest;fontSize=12;strokeWidth=0;fillStyle=hatch;sketch=0;shadow=0;glass=0;" vertex="1" parent="nMjFauRkBl9U1E-5iKPS-3">
          <mxGeometry y="70" width="160" height="90" as="geometry" />
        </mxCell>
        <mxCell id="nMjFauRkBl9U1E-5iKPS-42" style="edgeStyle=orthogonalEdgeStyle;rounded=0;orthogonalLoop=1;jettySize=auto;html=1;" edge="1" parent="1" source="nMjFauRkBl9U1E-5iKPS-8" target="nMjFauRkBl9U1E-5iKPS-3">
          <mxGeometry relative="1" as="geometry">
            <Array as="points">
              <mxPoint x="119" y="210" />
              <mxPoint x="532" y="210" />
            </Array>
          </mxGeometry>
        </mxCell>
        <mxCell id="nMjFauRkBl9U1E-5iKPS-44" style="edgeStyle=orthogonalEdgeStyle;rounded=0;orthogonalLoop=1;jettySize=auto;html=1;fillColor=#ffe6cc;strokeColor=#d79b00;" edge="1" parent="1" source="nMjFauRkBl9U1E-5iKPS-8" target="nMjFauRkBl9U1E-5iKPS-1">
          <mxGeometry relative="1" as="geometry">
            <Array as="points">
              <mxPoint x="140" y="230" />
              <mxPoint x="296" y="230" />
            </Array>
          </mxGeometry>
        </mxCell>
        <mxCell id="nMjFauRkBl9U1E-5iKPS-8" value="Bulldog" style="swimlane;fontStyle=0;childLayout=stackLayout;horizontal=1;startSize=26;horizontalStack=0;resizeParent=1;resizeParentMax=0;resizeLast=0;collapsible=1;marginBottom=0;align=center;fontSize=14;rounded=0;shadow=0;glass=0;sketch=0;fillStyle=auto;strokeColor=default;strokeWidth=1;fillColor=default;swimlaneLine=1;" vertex="1" parent="1">
          <mxGeometry x="39" y="260" width="160" height="70" as="geometry" />
        </mxCell>
        <mxCell id="nMjFauRkBl9U1E-5iKPS-9" value="+ move() : void&#xa;+ describe() : void" style="text;strokeColor=default;fillColor=none;spacingLeft=4;spacingRight=4;overflow=hidden;rotatable=0;points=[[0,0.5],[1,0.5]];portConstraint=eastwest;fontSize=12;rounded=0;shadow=0;glass=0;sketch=0;fillStyle=auto;strokeWidth=0;" vertex="1" parent="nMjFauRkBl9U1E-5iKPS-8">
          <mxGeometry y="26" width="160" height="44" as="geometry" />
        </mxCell>
        <mxCell id="nMjFauRkBl9U1E-5iKPS-41" style="edgeStyle=orthogonalEdgeStyle;rounded=0;orthogonalLoop=1;jettySize=auto;html=1;" edge="1" parent="1" source="nMjFauRkBl9U1E-5iKPS-12" target="nMjFauRkBl9U1E-5iKPS-3">
          <mxGeometry relative="1" as="geometry">
            <Array as="points">
              <mxPoint x="313" y="210" />
              <mxPoint x="532" y="210" />
            </Array>
          </mxGeometry>
        </mxCell>
        <mxCell id="nMjFauRkBl9U1E-5iKPS-43" style="edgeStyle=orthogonalEdgeStyle;rounded=0;orthogonalLoop=1;jettySize=auto;html=1;fillColor=#ffe6cc;strokeColor=#d79b00;" edge="1" parent="1" source="nMjFauRkBl9U1E-5iKPS-12" target="nMjFauRkBl9U1E-5iKPS-1">
          <mxGeometry relative="1" as="geometry">
            <Array as="points">
              <mxPoint x="296" y="220" />
              <mxPoint x="296" y="220" />
            </Array>
          </mxGeometry>
        </mxCell>
        <mxCell id="nMjFauRkBl9U1E-5iKPS-12" value="GermanShepherd" style="swimlane;fontStyle=0;childLayout=stackLayout;horizontal=1;startSize=26;horizontalStack=0;resizeParent=1;resizeParentMax=0;resizeLast=0;collapsible=1;marginBottom=0;align=center;fontSize=14;rounded=0;shadow=0;glass=0;sketch=0;fillStyle=auto;strokeColor=default;strokeWidth=1;fillColor=default;swimlaneLine=1;" vertex="1" parent="1">
          <mxGeometry x="233" y="260" width="160" height="70" as="geometry" />
        </mxCell>
        <mxCell id="nMjFauRkBl9U1E-5iKPS-13" value="+ move() : void&#xa;+ describe() : void" style="text;strokeColor=default;fillColor=none;spacingLeft=4;spacingRight=4;overflow=hidden;rotatable=0;points=[[0,0.5],[1,0.5]];portConstraint=eastwest;fontSize=12;rounded=0;shadow=0;glass=0;sketch=0;fillStyle=auto;strokeWidth=0;" vertex="1" parent="nMjFauRkBl9U1E-5iKPS-12">
          <mxGeometry y="26" width="160" height="44" as="geometry" />
        </mxCell>
        <mxCell id="nMjFauRkBl9U1E-5iKPS-39" style="edgeStyle=orthogonalEdgeStyle;rounded=0;orthogonalLoop=1;jettySize=auto;html=1;" edge="1" parent="1" source="nMjFauRkBl9U1E-5iKPS-16" target="nMjFauRkBl9U1E-5iKPS-3">
          <mxGeometry relative="1" as="geometry">
            <Array as="points">
              <mxPoint x="532" y="240" />
              <mxPoint x="532" y="240" />
            </Array>
          </mxGeometry>
        </mxCell>
        <mxCell id="nMjFauRkBl9U1E-5iKPS-45" style="edgeStyle=orthogonalEdgeStyle;rounded=0;orthogonalLoop=1;jettySize=auto;html=1;fillColor=#ffe6cc;strokeColor=#d79b00;" edge="1" parent="1" source="nMjFauRkBl9U1E-5iKPS-16" target="nMjFauRkBl9U1E-5iKPS-1">
          <mxGeometry relative="1" as="geometry">
            <Array as="points">
              <mxPoint x="513" y="230" />
              <mxPoint x="296" y="230" />
            </Array>
          </mxGeometry>
        </mxCell>
        <mxCell id="nMjFauRkBl9U1E-5iKPS-16" value="Pitbull" style="swimlane;fontStyle=0;childLayout=stackLayout;horizontal=1;startSize=26;horizontalStack=0;resizeParent=1;resizeParentMax=0;resizeLast=0;collapsible=1;marginBottom=0;align=center;fontSize=14;rounded=0;shadow=0;glass=0;sketch=0;fillStyle=auto;strokeColor=default;strokeWidth=1;fillColor=default;swimlaneLine=1;" vertex="1" parent="1">
          <mxGeometry x="433" y="260" width="160" height="70" as="geometry" />
        </mxCell>
        <mxCell id="nMjFauRkBl9U1E-5iKPS-17" value="+ move() : void&#xa;+ describe() : void" style="text;strokeColor=default;fillColor=none;spacingLeft=4;spacingRight=4;overflow=hidden;rotatable=0;points=[[0,0.5],[1,0.5]];portConstraint=eastwest;fontSize=12;rounded=0;shadow=0;glass=0;sketch=0;fillStyle=auto;strokeWidth=0;" vertex="1" parent="nMjFauRkBl9U1E-5iKPS-16">
          <mxGeometry y="26" width="160" height="44" as="geometry" />
        </mxCell>
        <mxCell id="nMjFauRkBl9U1E-5iKPS-40" style="edgeStyle=orthogonalEdgeStyle;rounded=0;orthogonalLoop=1;jettySize=auto;html=1;" edge="1" parent="1" source="nMjFauRkBl9U1E-5iKPS-20" target="nMjFauRkBl9U1E-5iKPS-3">
          <mxGeometry relative="1" as="geometry">
            <Array as="points">
              <mxPoint x="709" y="210" />
              <mxPoint x="532" y="210" />
            </Array>
          </mxGeometry>
        </mxCell>
        <mxCell id="nMjFauRkBl9U1E-5iKPS-46" style="edgeStyle=orthogonalEdgeStyle;rounded=0;orthogonalLoop=1;jettySize=auto;html=1;fillColor=#ffe6cc;strokeColor=#d79b00;" edge="1" parent="1" source="nMjFauRkBl9U1E-5iKPS-20" target="nMjFauRkBl9U1E-5iKPS-1">
          <mxGeometry relative="1" as="geometry">
            <Array as="points">
              <mxPoint x="690" y="230" />
              <mxPoint x="296" y="230" />
            </Array>
          </mxGeometry>
        </mxCell>
        <mxCell id="nMjFauRkBl9U1E-5iKPS-20" value="SiberianHusky" style="swimlane;fontStyle=0;childLayout=stackLayout;horizontal=1;startSize=26;horizontalStack=0;resizeParent=1;resizeParentMax=0;resizeLast=0;collapsible=1;marginBottom=0;align=center;fontSize=14;rounded=0;shadow=0;glass=0;sketch=0;fillStyle=auto;strokeColor=default;strokeWidth=1;fillColor=default;swimlaneLine=1;" vertex="1" parent="1">
          <mxGeometry x="629" y="260" width="160" height="70" as="geometry" />
        </mxCell>
        <mxCell id="nMjFauRkBl9U1E-5iKPS-21" value="+ move() : void&#xa;+ describe() : void" style="text;strokeColor=default;fillColor=none;spacingLeft=4;spacingRight=4;overflow=hidden;rotatable=0;points=[[0,0.5],[1,0.5]];portConstraint=eastwest;fontSize=12;rounded=0;shadow=0;glass=0;sketch=0;fillStyle=auto;strokeWidth=0;" vertex="1" parent="nMjFauRkBl9U1E-5iKPS-20">
          <mxGeometry y="26" width="160" height="44" as="geometry" />
        </mxCell>
        <mxCell id="nMjFauRkBl9U1E-5iKPS-48" style="edgeStyle=orthogonalEdgeStyle;rounded=0;orthogonalLoop=1;jettySize=auto;html=1;fillColor=#ffe6cc;strokeColor=#d79b00;" edge="1" parent="1" source="nMjFauRkBl9U1E-5iKPS-23" target="nMjFauRkBl9U1E-5iKPS-1">
          <mxGeometry relative="1" as="geometry">
            <Array as="points">
              <mxPoint x="296" y="350" />
              <mxPoint x="410" y="350" />
              <mxPoint x="410" y="160" />
              <mxPoint x="296" y="160" />
            </Array>
          </mxGeometry>
        </mxCell>
        <mxCell id="nMjFauRkBl9U1E-5iKPS-23" value="SmartPhone" style="swimlane;fontStyle=0;childLayout=stackLayout;horizontal=1;startSize=26;horizontalStack=0;resizeParent=1;resizeParentMax=0;resizeLast=0;collapsible=1;marginBottom=0;align=center;fontSize=14;rounded=0;shadow=0;glass=0;sketch=0;fillStyle=auto;strokeColor=default;strokeWidth=1;fillColor=default;swimlaneLine=1;" vertex="1" parent="1">
          <mxGeometry x="216" y="390" width="160" height="150" as="geometry" />
        </mxCell>
        <mxCell id="nMjFauRkBl9U1E-5iKPS-24" value="+ price : int&#xa;+ brand : String" style="text;strokeColor=default;fillColor=none;spacingLeft=4;spacingRight=4;overflow=hidden;rotatable=0;points=[[0,0.5],[1,0.5]];portConstraint=eastwest;fontSize=12;rounded=0;shadow=0;glass=0;sketch=0;fillStyle=auto;strokeWidth=0;" vertex="1" parent="nMjFauRkBl9U1E-5iKPS-23">
          <mxGeometry y="26" width="160" height="44" as="geometry" />
        </mxCell>
        <mxCell id="nMjFauRkBl9U1E-5iKPS-25" value="+ move() : void&#xa;+ getPrice() : int&#xa;+ setPrice() : void&#xa;+ getBrand() : String&#xa;+ setBrand() : void" style="text;strokeColor=default;fillColor=none;spacingLeft=4;spacingRight=4;overflow=hidden;rotatable=0;points=[[0,0.5],[1,0.5]];portConstraint=eastwest;fontSize=12;rounded=0;shadow=0;glass=0;sketch=0;fillStyle=auto;strokeWidth=0;" vertex="1" parent="nMjFauRkBl9U1E-5iKPS-23">
          <mxGeometry y="70" width="160" height="80" as="geometry" />
        </mxCell>
        <mxCell id="nMjFauRkBl9U1E-5iKPS-47" style="edgeStyle=orthogonalEdgeStyle;rounded=0;orthogonalLoop=1;jettySize=auto;html=1;fillColor=#ffe6cc;strokeColor=#d79b00;" edge="1" parent="1" source="nMjFauRkBl9U1E-5iKPS-27" target="nMjFauRkBl9U1E-5iKPS-1">
          <mxGeometry relative="1" as="geometry">
            <Array as="points">
              <mxPoint x="524" y="350" />
              <mxPoint x="410" y="350" />
              <mxPoint x="410" y="160" />
              <mxPoint x="296" y="160" />
            </Array>
          </mxGeometry>
        </mxCell>
        <mxCell id="nMjFauRkBl9U1E-5iKPS-27" value="Car" style="swimlane;fontStyle=0;childLayout=stackLayout;horizontal=1;startSize=26;horizontalStack=0;resizeParent=1;resizeParentMax=0;resizeLast=0;collapsible=1;marginBottom=0;align=center;fontSize=14;rounded=0;shadow=0;glass=0;sketch=0;fillStyle=auto;strokeColor=default;strokeWidth=1;fillColor=default;swimlaneLine=1;" vertex="1" parent="1">
          <mxGeometry x="436" y="390" width="176" height="210" as="geometry" />
        </mxCell>
        <mxCell id="nMjFauRkBl9U1E-5iKPS-28" value="+ totalForwardGear : int&#xa;+ color : String&#xa;+ maxSpeed : int" style="text;strokeColor=default;fillColor=none;spacingLeft=4;spacingRight=4;overflow=hidden;rotatable=0;points=[[0,0.5],[1,0.5]];portConstraint=eastwest;fontSize=12;rounded=0;shadow=0;glass=0;sketch=0;fillStyle=auto;strokeWidth=0;" vertex="1" parent="nMjFauRkBl9U1E-5iKPS-27">
          <mxGeometry y="26" width="176" height="64" as="geometry" />
        </mxCell>
        <mxCell id="nMjFauRkBl9U1E-5iKPS-29" value="+ move() : void&#xa;+ getTotalForwardGear() : int&#xa;+ setTotalForwardGear() : void&#xa;+ getColor() : String&#xa;+ setColor() : void&#xa;+ getMaxSpeed() : int&#xa;+ setMaxSpeed() : void" style="text;strokeColor=default;fillColor=none;spacingLeft=4;spacingRight=4;overflow=hidden;rotatable=0;points=[[0,0.5],[1,0.5]];portConstraint=eastwest;fontSize=12;rounded=0;shadow=0;glass=0;sketch=0;fillStyle=auto;strokeWidth=0;" vertex="1" parent="nMjFauRkBl9U1E-5iKPS-27">
          <mxGeometry y="90" width="176" height="120" as="geometry" />
        </mxCell>
      </root>
    </mxGraphModel>
  </diagram>
</mxfile>
